<svg width="196" height="132" viewBox="0 0 196 132" fill="none" xmlns="http://www.w3.org/2000/svg">
<rect x="0.5" y="0.5" width="195" height="131" rx="15.5" fill="white" stroke="#9A8ABC"/>
<path d="M31.224 105.112V108.893H30V101.118H31.9019L34.193 107.304H34.2307L36.5908 101.118H38.499V108.893H37.1997V105.047C37.1997 104.732 37.2101 104.248 37.2311 103.594C37.252 102.936 37.2708 102.542 37.2876 102.412H37.2373L34.7579 108.893H33.5653L31.1738 102.4H31.1299C31.1926 103.365 31.224 104.269 31.224 105.112Z" fill="black"/>
<path d="M56.1091 101.118H57.4587V106.152C57.4671 107.018 57.1741 107.714 56.5799 108.237C55.9857 108.757 55.1781 109.011 54.157 109C53.1318 109 52.3346 108.746 51.7655 108.237C51.1964 107.725 50.9118 107.022 50.9118 106.128V101.118H52.2676V106.04C52.2676 106.678 52.4246 107.15 52.7384 107.458C53.0564 107.761 53.544 107.913 54.2009 107.913C55.4731 107.913 56.1091 107.284 56.1091 106.028V101.118Z" fill="black"/>
<path d="M72.8582 105.933L74.5781 101.118H75.9842L73.0905 108.893H71.6656L68.7845 101.118H70.1717L71.8979 105.951C71.9816 106.172 72.0736 106.457 72.1741 106.808C72.2745 107.154 72.3435 107.436 72.3812 107.653C72.4314 107.381 72.5088 107.064 72.6134 106.701C72.7222 106.339 72.8038 106.083 72.8582 105.933Z" fill="black"/>
<path d="M88.7335 108.893H87.384V101.118H88.7335V108.893Z" fill="black"/>
<path d="M105.153 105.171C105.701 105.561 105.975 106.101 105.975 106.79C105.975 107.475 105.712 108.015 105.185 108.409C104.657 108.803 103.925 109 102.988 109C102.05 109 101.284 108.864 100.69 108.592V107.387C101.494 107.745 102.289 107.924 103.075 107.924C103.599 107.924 103.99 107.832 104.249 107.647C104.509 107.458 104.638 107.207 104.638 106.896C104.638 106.585 104.523 106.331 104.293 106.134C104.063 105.933 103.573 105.691 102.824 105.407C102.075 105.12 101.548 104.791 101.243 104.421C100.937 104.051 100.784 103.609 100.784 103.097C100.784 102.447 101.029 101.937 101.519 101.567C102.013 101.193 102.661 101.006 103.465 101.006C104.268 101.006 105.065 101.169 105.856 101.496L105.423 102.536C104.682 102.245 104.027 102.099 103.458 102.099C103.032 102.099 102.703 102.188 102.473 102.365C102.243 102.538 102.128 102.774 102.128 103.074C102.128 103.279 102.172 103.454 102.259 103.6C102.36 103.749 102.511 103.885 102.711 104.007C102.916 104.129 103.304 104.303 103.873 104.527C104.446 104.752 104.873 104.966 105.153 105.171Z" fill="black"/>
<path d="M119.226 108.893H117.876V101.118H119.226V108.893Z" fill="black"/>
<path d="M137.604 104.994C137.604 104.037 137.401 103.314 136.995 102.826C136.589 102.333 135.984 102.087 135.181 102.087C134.377 102.087 133.768 102.333 133.354 102.826C132.94 103.318 132.733 104.043 132.733 105C132.733 105.953 132.938 106.678 133.348 107.174C133.762 107.666 134.371 107.913 135.174 107.913C136.794 107.913 137.604 106.94 137.604 104.994ZM138.03 102.052C138.704 102.749 139.041 103.73 139.041 104.994C139.041 106.258 138.704 107.243 138.03 107.948C137.361 108.649 136.405 109 135.162 109C133.923 109 132.969 108.651 132.3 107.954C131.634 107.257 131.302 106.266 131.302 104.982C131.302 103.698 131.636 102.713 132.306 102.028C132.975 101.343 133.927 101 135.162 101C136.401 101 137.357 101.351 138.03 102.052Z" fill="black"/>
<path d="M158 101.118V108.893H156.343L152.282 102.702H152.238L152.263 103.044C152.317 103.674 152.344 104.277 152.344 104.852V108.893H151.12V101.118H152.759L156.807 107.28H156.839C156.789 106.268 156.763 105.573 156.763 105.195V101.118H158Z" fill="black"/>
<path d="M18.6598 71.9064C11.3552 92.825 24.3983 112.93 135.008 26.0001C126.311 35.5374 111.924 56.6085 123.958 64.5945M76.2738 85.954C91.179 84.8003 130.243 71.1945 167.255 26C161.696 35.4197 154.262 55.2826 169 59.3759" stroke="#5D5F88" stroke-width="10"/>
</svg>
